#!OML:ASF E:\Mandelcareful walks\Project 1\Capture day 1\Session 1\Subject1.ASF
:FULLY-SPECIFIED
:DEGREES
2039
root -24.7299 16.7206 0.0584661 547.097 -43.0141 534.741
lowerback 0.41957 -0.838689 -5.2787
upperback 3.14043 -1.12189 -0.102839
thorax 3.10347 -0.731596 2.82289
lowerneck -23.368 -8.70885 -12.891
upperneck 29.4304 -11.6237 8.87633
head 15.6412 -5.41477 3.41262
rclavicle -5.17337e-014 -1.59028e-015
rhumerus -33.8438 -4.62638 -81.0539
rradius 29.9797
rwrist -12.9534
rhand -15.5249 -24.7433
rfingers 7.12502
rthumb 10.6584 -54.453
lclavicle -5.17337e-014 -1.59028e-015
lhumerus -33.1791 7.07835 83.0933
lradius 29.9305
lwrist 13.2579
lhand -23.3124 -13.5467
lfingers 7.12502
lthumb 3.1414 16.4099
rfemur -15.078 -7.26185 15.9911
rtibia 26.8601
rfoot -17.3948 -20.1259
rtoes 18.8145
lfemur 1.36629 16.7424 -19.2285
ltibia 32.8906
lfoot -18.7188 22.3041
ltoes -19.6624
2040
root -24.7565 16.7033 -0.0973631 547.319 -42.1608 533.628
lowerback 0.075131 -0.672437 -5.91712
upperback 3.28328 -0.865813 -0.372269
thorax 3.43305 -0.633315 2.9021
lowerneck -23.2546 -8.62758 -12.9454
upperneck 29.5893 -11.5553 8.90862
head 15.6875 -5.40189 3.45602
rclavicle 4.75841e-014 -8.34896e-015
rhumerus -33.8204 -3.92223 -81.3971
rradius 30.317
rwrist -13.4959
rhand -15.5994 -24.8263
rfingers 7.12502
rthumb 10.5866 -54.5397
lclavicle 4.75841e-014 -8.34896e-015
lhumerus -33.4254 7.73418 82.6278
lradius 29.6602
lwrist 12.8792
lhand -23.1944 -13.7353
lfingers 7.12502
lthumb 3.25541 16.2196
rfemur -14.1971 -8.43671 15.2513
rtibia 26.9665
rfoot -16.9823 -18.5824
rtoes 17.8945
lfemur 1.60697 17.6542 -19.2383
ltibia 34.7923
lfoot -17.8495 20.9436
ltoes -17.0166
2041
root -24.7877 16.6774 -0.251988 547.554 -41.3279 532.049
lowerback 0.00180009 -0.485068 -6.7273
upperback 3.46638 -0.596886 -0.858101
thorax 3.64814 -0.535548 2.85711
lowerneck -23.1262 -8.58813 -12.9607
upperneck 29.8872 -11.6122 8.9585
head 15.8131 -5.44128 3.47408
rclavicle 6.1996e-014 2.98177e-015
rhumerus -33.8485 -4.03531 -81.6368
rradius 30.6307
rwrist -13.3554
rhand -15.0666 -24.9402
rfingers 7.12502
rthumb 11.1005 -54.6266
lclavicle 6.1996e-014 2.98177e-015
lhumerus -33.8137 8.1304 82.069
lradius 29.5365
lwrist 12.443
lhand -23.3021 -13.5376
lfingers 7.12502
lthumb 3.15132 16.4189
rfemur -12.9242 -9.99984 13.923
rtibia 26.9801
rfoot -16.6118 -16.5192
rtoes 17.4488
lfemur 2.03709 18.6387 -19.549
ltibia 36.9349
lfoot -16.172 20.2632
ltoes -14.1734
2042
root -24.7502 16.6915 -0.392118 546.444 -41.062 533.638
lowerback -0.119345 -0.519233 -5.83573
upperback 3.44272 -0.647945 -0.472834
thorax 3.68546 -0.53401 2.75577
lowerneck -23.1419 -8.4265 -12.6042
upperneck 30.0695 -11.4469 8.67044
head 15.8242 -5.37833 3.33081
rclavicle -6.1002e-014 2.3059e-014
rhumerus -33.4298 -3.7749 -81.9487
rradius 30.8219
rwrist -13.5649
rhand -14.3399 -24.8997
rfingers 7.12502
rthumb 11.8013 -54.5472
lclavicle -6.1002e-014 2.3059e-014
lhumerus -33.9783 8.86372 81.4673
lradius 29.4511
lwrist 11.8564
lhand -23.2642 -13.6055
lfingers 7.12502
lthumb 3.18794 16.3504
rfemur -12.5432 -8.31004 15.7706
rtibia 26.9274
rfoot -17.3564 -17.5103
rtoes 17.9222
lfemur 0.737086 19.2772 -17.3243
ltibia 39.4874
lfoot -13.3408 20.2568
ltoes -14.0278
2043
root -24.7446 16.6881 -0.527545 546.15 -40.5157 533.254
lowerback -0.0696474 -0.533513 -6.24215
upperback 3.56541 -0.665742 -0.485093
thorax 3.7948 -0.564769 2.96895
lowerneck -23.0435 -8.179 -12.2752
upperneck 30.2265 -11.1108 8.27048
head 15.7679 -5.26708 3.18494
rclavicle 6.51517e-014 -2.16675e-014
rhumerus -33.0815 -2.89454 -82.2229
rradius 30.9936
rwrist -14.2276
rhand -13.6635 -24.8094
rfingers 7.12502
rthumb 12.4535 -54.4184
lclavicle 6.51517e-014 -2.16675e-014
lhumerus -34.3133 9.79014 80.9669
lradius 29.5432
lwrist 11.366
lhand -23.4185 -13.7499
lfingers 7.12502
lthumb 3.03895 16.2082
rfemur -11.2462 -4.21919 15.8043
rtibia 26.6285
rfoot -19.1079 -20.281
rtoes 19.255
lfemur -0.0647875 19.8296 -16.7535
ltibia 42.395
lfoot -10.9343 20.4288
ltoes -14.3345
2044
root -24.7426 16.6901 -0.657857 545.603 -40.1589 533.184
lowerback 0.146687 -0.521892 -6.30917
upperback 3.67091 -0.669339 -0.435159
thorax 3.78469 -0.574575 3.05929
lowerneck -22.9293 -8.07083 -12.1691
upperneck 30.361 -10.9652 8.05686
head 15.7594 -5.23533 3.1123
rclavicle 1.98785e-015 1.35174e-014
rhumerus -32.8255 -2.55952 -82.2499
rradius 31.1379
rwrist -14.4949
rhand -13.9139 -24.9773
rfingers 7.12502
rthumb 12.2121 -54.6008
lclavicle 1.98785e-015 1.35174e-014
lhumerus -34.4878 10.4249 80.6656
lradius 29.5129
lwrist 11.3651
lhand -23.6978 -13.9763
lfingers 7.12502
lthumb 2.7692 15.9855
rfemur -9.95683 -4.25248 15.9844
rtibia 26.0295
rfoot -18.9917 -19.9547
rtoes 18.1926
lfemur -0.921773 20.2366 -15.9643
ltibia 45.6386
lfoot -9.24637 20.5031
ltoes -14.1212
